<svg xmlns="http://www.w3.org/2000/svg" width="66" height="66"><g data-name="Group 10089" transform="translate(-332 -623)"><rect data-name="Rectangle 1090" width="66" height="66" rx="33" transform="translate(332 623)" fill="#d6eafb"/><g data-name="Group 9853"><path data-name="Path 1990" d="M381.408 682.438s-4.6-5.686-3.64-10.221 12.174-15.994 2.745-29.362-28.287-2.865-28.287-2.865-10.265 5.49-6.923 18.142c1.006 3.808-.354 4.437-.716 5.848-.634 2.557-1.8 2.5-1.552 4.416.477 1.193 3.223.6 3.223.6a9.9 9.9 0 0 0 1.074 2.387 1.89 1.89 0 0 0 1.313.835c.337-.225.477 0-.529 1.913-.546.594.6 2.047 1.483 1.668 1.671-.716-.358 3.819 1.074 4.178s6.565 1.074 8.474-1.79-5.013 6.923-5.013 6.923a10.7 10.7 0 0 0 6.147 2.7c4.043.5 5.58-.058 10.026-.716 5.102-.756 11.101-4.656 11.101-4.656z" fill="#ffdcbb" stroke="#3b3c4e"/><path data-name="Path 1991" d="M348.431 667.092a7.083 7.083 0 0 1-2.287 0 .731.731 0 0 1-.448-.942s5.022-6.442 8.579-5.9 5.022 7.294 11.838 2.152a18.522 18.522 0 0 0 3.348-3.871s2.122-2.283 3.587-2.332 2.631.942 2.272 2.137-1.076 8.131-3.946 9.088-2.391-3.229-2.391-3.229-6.337-1.315-5.62 4.663 8.012 17.944 8.012 17.944l-8.012.95h0c-.072-1.686-.755-16.4-4.066-16.622-3.02-.2-9.482.918-9.482.918l-.2.039s7.772-2.391 8.131-4.663a2.831 2.831 0 0 0-2.72-2.257c-2.332-.085-6.595 1.925-6.595 1.925z" fill="#54e0eb" stroke="#3b3c4e"/><path data-name="Path 1992" d="M347.1 645.754s6.921-13.512 25.418-8.729c7.621 1.971 11.138 9.747 11.695 15.545a22.131 22.131 0 0 1-3.7 13.871s3.252-9.237 1.79-15.9a17.191 17.191 0 0 0-7.637-10.762c-3.418-1.609-6.37-1.659-12.649-1.076-7.75.715-14.917 7.051-14.917 7.051z" fill="#e6c3a2" opacity=".59"/></g></g></svg>