<svg xmlns="http://www.w3.org/2000/svg" width="66.171" height="66"><g data-name="Group 10088" transform="translate(-239 -623)"><rect data-name="Rectangle 1089" width="66" height="66" rx="33" transform="translate(239 623)" fill="#d6eafb"/><g data-name="Group 9857" transform="translate(-73.095 -298.8)"><path data-name="Intersection 22" d="M356.853 979.093s-2.44-.871-7.668 0-6.1-.871-6.972-3.834a8.551 8.551 0 0 0-3.66-4.531l2.091-2.44h-2.787s-.871-.523 0-2.789 0-2.265 0-2.265l-4.357-.871 5.054-10.108-.7-5.751.07-.043a26.082 26.082 0 0 1-1.639-2.4c-1.77-9.185 12.26-16.885 14.377-17.985a29.982 29.982 0 0 1 8.916 57.408z" fill="#ffdcbb" stroke="#3b3c4e"/><path data-name="Path 1989" d="M336.927 946.853s3.345 4.043 10.593-2.928 10.444-2.421 13.1 1.255c4.739 6.553-3.066 29.279-4.182 29.976s-1.254 6.832 3.485 8.644c0 0 7.91-3.276 12.405-9.9s5.708-12.344 5.576-16.591c-.279-8.923-.836-4.88-1.394-9.481-.248-2.047-3.1-9.411-9.618-14.918s-16.448-7.11-16.448-7.11l-2.927 1.952a45.934 45.934 0 0 0-7.527 6.135 12.293 12.293 0 0 0-3.067 5.717 3.785 3.785 0 0 0-.976 2.37 29.776 29.776 0 0 0 .98 4.879z" fill="#3b3c4e"/><circle data-name="Ellipse 286" cx="1.4" cy="1.4" r="1.4" transform="translate(349.877 958)" fill="#db8181"/><circle data-name="Ellipse 287" cx="1.4" cy="1.4" r="1.4" transform="translate(352.665 962.181)" fill="#db8181"/><circle data-name="Ellipse 288" cx="1.4" cy="1.4" r="1.4" transform="translate(347.09 962.181)" fill="#db8181"/><circle data-name="Ellipse 289" cx=".7" cy=".7" r=".7" transform="translate(354.062 954.518)" fill="#db8181"/></g></g></svg>