<svg xmlns="http://www.w3.org/2000/svg" width="66" height="66"><g data-name="Group 10087" transform="translate(-136 -623)"><rect data-name="Rectangle 1088" width="66" height="66" rx="33" transform="translate(136 623)" fill="#d6eafb"/><g data-name="Group 9856"><path data-name="Path 1986" d="M183.213 649.902l-2.049-6.116-1.4-2.694-1.36-1.674-1.886-1.254a22.575 22.575 0 0 0-2.921-.941c-.992-.182-.95 0-.95 0h-1.256l-1.776.8s-.076-.75-.317.142-.645 3.427-.645 3.427l.645 3.27 3.348 3.348 2.511.732 3.244-.732v4.6l5.336-1.046z" fill="#ffdcbb" stroke="#3b3c4e"/><path data-name="Path 1983" d="M173.168 636.95a18.606 18.606 0 0 1 2.686.733c1.758.293 3.357 2.38 3.357 2.38l2.075 3.247s1.9 7.306 2.722 7.471c1.465.293 2.637-.44 3.662 0s2.93 2.637 4.1 8.936.439 8.2 1.465 8.643 3.662-3.516 3.369-5.42.879-4.541 0-8.35-2.783-11.719-6.3-15.234c-1.642-1.642-4.245-4.979-8.2-7.031-1.79-.929-4.637-2.291-7.157-2.323a9.278 9.278 0 0 0-5.148 1.59c-4.437 4.793-1.288 8.878-1.611 11.719-.186 1.629.464-1.9.464-1.9s-.244-2.747 1.4-3.723a4.266 4.266 0 0 1 3.116-.738z" fill="#3b3c4e"/><path data-name="Path 1984" d="M177.667 652.392c-.418.7-4.76 2.948-6.173 5.545a9.98 9.98 0 0 0-.628 6.906s-6.069.732-8.371 10.673c-.837 13.5 6.573 11.456 10.986 11.823 3.126.26 7.445.118 11.112-2.2 3.335-2.1 7.722-6.278 8.5-15.318v-3.662l-2.49-13.33-1.611-1.611-1.611-.732-2.783-.586-3.809 2.051a24.1 24.1 0 0 0-3.406.44" fill="#4fc6e8" stroke="#3b3c4e"/><path data-name="Path 1985" d="M189.282 652.393c-1.57.209-5.964.523-4.6 9.94s4.29 11.614 1.046 15.276-14.439 9.1-17.683 4.081-2.276-2.119-3.034-2.825 0 5.127 0 5.127-.628 2.616 3.034 3.348a23.693 23.693 0 0 0 7.743.523 35.053 35.053 0 0 0 7.847-2.2s9-4.6 9.731-10.254-1.151-16.113-1.151-16.113-1.364-7.114-2.933-6.903z" fill="#ffdcbb" stroke="#3b3c4e"/></g></g></svg>