<svg xmlns="http://www.w3.org/2000/svg" width="66" height="66"><g data-name="Group 10086" transform="translate(-31 -623)"><rect data-name="Rectangle 1087" width="66" height="66" rx="33" transform="translate(31 623)" fill="#d6eafb"/><g data-name="2759056"><g data-name="Group 9527"><g data-name="Group 9518"><path data-name="Path 1747" d="M86.2 653.328v17.343h-7.108v-15.155a12.858 12.858 0 0 1 3.785-9.107 8.865 8.865 0 0 1 3.323 6.919z" fill="#f0d0b4"/></g><g data-name="Group 9519"><path data-name="Path 1748" d="M54.213 655.516v8.05h-7.108v-10.238a8.865 8.865 0 0 1 3.323-6.922 12.858 12.858 0 0 1 3.785 9.11z" fill="#f0d0b4"/></g><g data-name="Group 9520"><path data-name="Path 1749" d="M74.969 643.377l-.6 1.2a8.567 8.567 0 0 1-2.506 3.021 4.545 4.545 0 0 0-.5-.027h-.311a4.19 4.19 0 0 0-2.956 1.226l-.551.551-.551-.551a4.19 4.19 0 0 0-2.959-1.226h-.311a4.009 4.009 0 0 0-1.75.391 8.536 8.536 0 0 1-3.03-3.385l-.6-1.2 3.874-1.137.889-2.381.018-.053a9.839 9.839 0 0 0 7.073 0l.018.053.889 2.381z" fill="#f0d0b4"/></g><g data-name="Group 9521"><path data-name="Path 1750" d="M76.426 629.8v.889a9.774 9.774 0 1 1-19.547 0v-.871z" fill="#f0d0b4"/></g><g data-name="Group 9522"><path data-name="Path 1751" d="M79.82 644.808l-4.851-1.431-.6 1.2a8.567 8.567 0 0 1-2.51 3.02 4.2 4.2 0 0 1 3.678 4.149 4.185 4.185 0 0 1-1.608 3.3l-6.388 4.967-6.388-4.967a4.173 4.173 0 0 1 .817-7.081 8.536 8.536 0 0 1-3.03-3.385l-.6-1.2-4.852 1.428a8.9 8.9 0 0 0-3.056 1.6 12.858 12.858 0 0 1 3.785 9.107v8.05h3.554a3.553 3.553 0 0 1 3.554 3.554v3.554h17.763v-15.159a12.858 12.858 0 0 1 3.785-9.107 8.9 8.9 0 0 0-3.053-1.599z" fill="#4fc6e8"/></g><g data-name="Group 9523"><path data-name="Path 1752" d="M66.653 679.557v1.777h-5.811a3.544 3.544 0 0 0 .48-1.777v-1.777h5.331z" fill="#aab2bd"/></g><g data-name="Group 9524"><path data-name="Path 1753" d="M36.443 683.111a3.553 3.553 0 0 1-3.554-3.554v-12.439a3.553 3.553 0 0 1 3.554-3.554h21.324a3.553 3.553 0 0 1 3.554 3.554v12.439a3.563 3.563 0 0 1-3.554 3.554z" fill="#ccd1d9"/></g><g data-name="Group 9525"><path data-name="Path 1754" d="M56.879 667.118H37.332a.891.891 0 0 0-.889.889v7.111a.891.891 0 0 0 .889.889h19.547a.891.891 0 0 0 .888-.889v-7.111a.891.891 0 0 0-.888-.889z" fill="#69d6f4"/></g><g data-name="Group 9526"><path data-name="Path 1755" d="M71.859 647.597a4.2 4.2 0 0 1 3.678 4.149 4.185 4.185 0 0 1-1.608 3.3l-6.385 4.963-6.388-4.967a4.173 4.173 0 0 1 .817-7.081 4.009 4.009 0 0 1 1.747-.391h.311a4.19 4.19 0 0 1 2.959 1.226l.551.551.551-.551a4.19 4.19 0 0 1 2.958-1.226h.311a4.545 4.545 0 0 1 .5.027z" fill="#ef7385"/></g></g><g data-name="Group 9528" fill="#3b3c4e"><path data-name="Path 1756" d="M56.477 666.517H37.245a1.75 1.75 0 0 0-1.748 1.748v6.993a1.75 1.75 0 0 0 1.748 1.749h19.232a1.75 1.75 0 0 0 1.748-1.748v-6.994a1.75 1.75 0 0 0-1.748-1.748zm0 1.748v3.5h-9.254l-3.079-3.079-2.486 3.315-1.322-1.984h-3.091v-1.752zm-19.232 6.994v-3.5h2.152l2.174 3.261 2.759-3.679 2.167 2.169h9.98v1.748z"/><path data-name="Path 1757" d="M35.497 678.755h1.748v1.748h-1.748z"/><path data-name="Path 1758" d="M42.49 678.755h1.748v1.748H42.49z"/><path data-name="Path 1759" d="M38.993 678.755h1.748v1.748h-1.748z"/><path data-name="Path 1760" d="M69.589 635.046h-1.748a1.75 1.75 0 0 1-3.5 0h-1.745a3.5 3.5 0 0 0 6.993 0z"/><path data-name="Path 1761" d="M70.464 673.51h2.623a2.619 2.619 0 0 0 2.462-1.748H86.2v-17.937a9.669 9.669 0 0 0-6.9-9.224l-8.166-2.4-.457-1.226a10.493 10.493 0 0 0 5.909-9.423v-1.751l-11.2.01-9.786.007v1.731a10.492 10.492 0 0 0 5.91 9.423l-.454 1.229-8.166 2.4a9.671 9.671 0 0 0-6.9 9.225v9.195h-9.619a4.376 4.376 0 0 0-4.371 4.37v12.238a4.376 4.376 0 0 0 4.371 4.372h20.98a4.351 4.351 0 0 0 3.474-1.748h6.142v-1.752h16.61a2.623 2.623 0 0 0 0-5.245H70.464a.874.874 0 0 1 0-1.748zm13.987-19.685v16.188h-5.245v-14.036a11.681 11.681 0 0 1 2.908-7.73 7.891 7.891 0 0 1 2.337 5.578zm-3.709-6.667a13.415 13.415 0 0 0-3.284 8.819v14.036h-1.91a2.619 2.619 0 0 0-2.462-1.748h-4.37a.875.875 0 0 1-.874-.874v-6.566l5.944-4.624a4.978 4.978 0 0 0-.865-8.4 9.382 9.382 0 0 0 1.546-2.194l.264-.527 4.073 1.2a7.765 7.765 0 0 1 1.939.881zm-17.533 1.875h.308a3.215 3.215 0 0 1 2.288.948l1.163 1.163 1.162-1.163a3.215 3.215 0 0 1 2.288-.948h.308a3.235 3.235 0 0 1 1.986 5.789l-5.744 4.468-5.744-4.468a3.235 3.235 0 0 1 1.986-5.789zm-5.858-17.468l17.484-.015a8.742 8.742 0 0 1-17.484.015zm5.038 12.064l.752-2.019a10.347 10.347 0 0 0 5.9 0l.752 2.019 3.228.949-.123.247a7.646 7.646 0 0 1-1.984 2.47c-.065 0-.128-.01-.192-.01h-.308a4.951 4.951 0 0 0-3.45 1.387 4.951 4.951 0 0 0-3.45-1.387h-.308a4.967 4.967 0 0 0-1.6.268 7.6 7.6 0 0 1-2.326-2.727l-.123-.247zm-14.654 10.2a7.891 7.891 0 0 1 2.338-5.578 11.682 11.682 0 0 1 2.908 7.73v7.042h-5.246zm12.239 25.8a2.626 2.626 0 0 1-2.623 2.623h-20.98a2.626 2.626 0 0 1-2.623-2.623v-12.238a2.626 2.626 0 0 1 2.623-2.623h20.98a2.626 2.626 0 0 1 2.623 2.623zm5.245.874h-3.585a4.367 4.367 0 0 0 .088-.874v-.874h3.5zm5.245-3.5h13.113a.874.874 0 1 1 0 1.748h-16.61v-1.744h-5.245v-9.616a4.376 4.376 0 0 0-4.371-4.371h-2.622v-7.043a13.415 13.415 0 0 0-3.284-8.819 7.765 7.765 0 0 1 1.939-.881l4.073-1.2.264.527a9.376 9.376 0 0 0 2.246 2.886 4.975 4.975 0 0 0 .183 7.709l5.944 4.623v6.569a2.626 2.626 0 0 0 2.623 2.623h4.371a.874.874 0 0 1 0 1.748h-2.624a2.623 2.623 0 0 0 0 5.245z"/></g></g></g></svg>